<?xml version="1.0" encoding="UTF-8" standalone="no"?>
<svg width="1000" height="1000" viewBox="0 0 264.58331 264.58331" xmlns="http://www.w3.org/2000/svg" >
   <title>suryami62's Logo</title>
   <path d="m 26.12106,253.24228 q -5.08994,-4.54631 -9.644098,-11.93406 -4.554158,-7.95604 -5.893616,-13.07063 0,-5.11459 0.803675,-6.81946 0.803675,-2.27315 4.554158,-1.70486 4.018374,0 12.858798,2.27315 3.214699,0 8.036749,-1.13657 4.822048,-1.13658 8.840423,-3.40973 4.286266,-2.27315 4.82205,-5.68289 1.339458,0 0.535783,-1.70487 -0.803675,-2.27314 -1.875242,-4.5463 -1.071566,0 -2.411024,-1.70485 -1.339459,-2.27316 -2.411025,-2.27316 0,-2.84143 -2.678917,-6.25117 -2.411024,-3.97801 -5.08994,-6.25117 -5.893616,-10.22919 -10.179882,-18.18523 -4.286266,-8.52431 -3.2147,-11.36575 0,-2.27316 0,-2.27316 0,-0.56829 0,-0.56829 -1.875241,0 -4.286265,-11.36576 -2.143133,-11.36576 -2.143133,-20.45837 0,-6.81946 1.875241,-17.04865 1.875241,-10.797472 5.08994,-22.163236 3.2147,-11.365763 6.697291,-18.75351 4.82205,-9.660897 12.055123,-20.458373 7.233075,-11.365763 14.198257,-19.890086 7.233074,-9.09261 12.055124,-11.934051 4.822048,-3.978017 8.840426,-3.978017 4.286263,0 7.500965,3.978017 2.678916,2.841441 4.822048,8.524322 2.411024,5.114593 4.018371,10.797475 1.875246,5.114594 2.411024,9.092611 0,6.819458 -0.535778,15.343781 -0.535785,7.956033 -1.607354,14.207203 -0.80367,6.25117 -2.678916,6.25117 0,0 -0.80367,0.568288 -0.535785,0 -0.535785,2.841441 0,5.682882 -4.018378,13.070629 -5.08994,7.387746 -8.840419,9.092606 -3.750486,1.13658 -4.554163,-6.251166 -0.80367,-2.273152 -1.071562,-3.978017 -0.267893,-1.704864 -1.339462,-1.704864 0,0 -0.80367,-1.704865 -0.803677,-1.704864 -0.803677,-5.682882 0,-2.273152 0.803677,-3.978017 0.80367,-2.273153 0.80367,-2.273153 1.339462,0 3.482593,-6.25117 2.143132,-6.819458 3.750486,-14.207203 1.875239,-7.956034 1.875239,-10.797475 0,-3.409729 -0.535784,-3.978018 -0.267893,-0.568288 -2.411024,-0.568288 -3.750486,3.409729 -9.108316,9.092611 -5.357833,5.682882 -10.179882,11.365762 -4.554157,5.114594 -6.69729,9.660899 -1.071567,3.978018 -1.339459,5.114594 -0.267891,0.568288 -1.339458,0.568288 0,-2.273153 -1.875241,2.273153 -1.60735,3.978017 -4.286267,11.365764 -2.411024,7.387746 -4.822048,14.775487 -2.143133,6.81946 -3.2147,10.22919 -0.535783,1.13658 -1.339458,6.81946 -0.535783,5.11459 -0.535783,9.6609 -1.071567,6.81946 0.267891,9.6609 1.339458,2.27315 5.893616,10.22919 9.376207,14.77549 14.73404,24.43638 5.357832,9.6609 8.036748,15.91207 2.678916,6.25117 3.2147,11.36576 4.82205,17.04865 2.946808,26.14127 -1.875242,9.0926 -9.108315,15.91206 -2.678917,2.84144 -8.840424,4.54631 -6.161508,1.70487 -12.590907,1.70487 -6.429399,0.56828 -10.179882,-0.56829 z" />
   <path d="m 100.72876,233.35218 q -0.803673,0.56829 -2.67892,-0.56829 -1.875239,-1.13656 -3.750478,-2.84143 -1.875247,-1.70487 -2.411025,-2.84145 -1.071569,-2.27314 -2.143138,-6.81945 -0.80367,-4.54631 0,-13.07063 0.803677,-9.0926 5.357833,-23.29982 1.339461,-5.68288 3.214701,-17.04864 1.875247,-11.36576 3.750487,-23.8681 2.14313,-13.07063 3.75048,-23.29982 1.87524,-10.22918 2.67891,-14.2072 0.53579,-9.660898 -0.53577,-13.638916 -0.80368,-4.546305 -4.55417,-5.114593 -2.67891,0 -4.28626,-1.136577 -1.339462,-1.136576 -1.339462,-11.365763 0.535785,-7.956035 1.875246,-10.797476 1.607346,-3.409727 4.286266,-7.387745 2.67891,-2.841441 5.35783,-3.978017 2.94681,-1.136576 5.62573,-0.568288 2.67891,0.568288 4.28626,3.978017 1.87525,2.273153 2.41102,10.229186 0.53579,7.387746 0.53579,15.343781 0.26789,7.956035 0.53578,11.934052 2.67892,-4.546306 7.23307,-12.50234 4.82205,-8.524323 8.30465,-15.912069 4.28626,-6.251169 10.17988,-12.502339 5.89361,-6.819458 8.57253,-6.819458 2.94681,0 5.89362,3.409729 2.94681,2.841441 4.01837,7.387746 2.67892,9.660898 2.41102,17.048644 0,7.387747 -2.94681,15.343781 -2.67891,7.387747 -6.69728,10.229188 -3.75049,2.841437 -4.82205,2.841437 -1.60735,0 -4.01838,-5.11459 -2.41102,-5.114594 -2.67892,-8.524323 0,-1.704864 -3.48258,3.409729 -3.2147,4.546306 -7.23308,11.934054 -4.01837,6.81945 -6.69729,12.50234 -4.55415,11.93405 -9.64409,32.39243 -5.08995,20.45837 -12.05513,49.44107 -3.2147,14.20719 -4.55416,24.43638 -1.33946,9.66091 -3.75048,11.36576 z" />
   <path d="m 178.21459,120.2473 8.47509,-0.57574 q -9.87593,-7.35661 -9.87593,-19.894846 0,-13.369851 11.55693,-18.359556 -11.55693,-7.292647 -11.55693,-20.790439 0,-11.258822 7.21433,-16.760292 7.14429,-5.501469 21.57294,-5.501469 h 48.39904 v 18.551467 h -48.329 q -6.44386,0 -9.38562,2.302941 -3.01181,2.302941 -3.01181,8.124264 0,8.316175 8.6852,11.514704 l 52.04123,-0.06397 v 18.487503 h -48.25895 q -6.58395,0 -9.52572,2.366914 -2.94176,2.366902 -2.94176,8.060292 0,7.86838 7.14428,11.38675 h 53.58215 v 18.48751 h -75.78547 z" />
   <path d="M 254.00006,11.670929 V 30.222398 H 178.21459 V 11.670929 Z m -95.39724,19.638969 q -4.55272,0 -7.49449,-2.750735 -2.94176,-2.814706 -2.94176,-7.612499 0,-4.733823 2.94176,-7.548529 2.94177,-2.814705 7.49449,-2.814705 4.62278,0 7.56454,2.878675 2.94177,2.814706 2.94177,7.484559 0,4.669852 -2.94177,7.548529 -2.94176,2.814705 -7.56454,2.814705 z" />
   <path d="m 186.23866,251.23511 -2.91848,2.76487 h -39.93704 l -2.91847,-2.76487 8.60182,-8.60182 h 28.57035 z m 5.68335,-5.68335 -2.76487,2.76488 -8.60183,-8.60183 v -28.57034 l 8.60183,-8.60183 2.76487,2.91848 z m 0.1536,-97.38493 -11.36669,11.5203 h -31.64243 l -8.60182,-8.60183 2.91847,-2.91847 z m -12.90273,47.15643 5.68334,5.83695 -5.68334,5.68335 h -31.64243 l -5.68335,-5.68335 5.68335,-5.83695 z m -33.02487,44.39155 -8.60182,8.60183 -2.76487,-2.76488 v -40.09064 l 2.76487,-2.91848 8.60182,8.60183 z m 0,-48.53886 -8.60182,8.44822 -2.76487,-2.76487 v -40.09065 l 2.76487,-2.91848 8.60182,8.60183 z" />
   <path d="m 254.00003,196.8593 -2.91847,2.76487 -8.60183,-8.44822 V 162.452 l 8.60183,-8.60183 2.91847,2.91848 z m -5.68334,-45.774 -8.60183,8.60183 h -31.48882 l -11.5203,-11.5203 h 48.69247 z m -40.09065,88.62951 -8.60182,8.60183 -2.91848,-2.76488 v -40.09064 l 2.91848,-2.91848 8.60182,8.60183 z m 45.77399,14.28517 h -48.69247 l -2.91847,-2.76487 8.60182,-8.60182 h 31.64243 z m -7.06578,-52.83977 -5.83695,5.68335 h -31.48882 l -5.83696,-5.68335 5.83696,-5.83695 h 31.48882 z" />
</svg>
