<?xml version="1.0" encoding="UTF-8" standalone="no"?>
<svg width="720" height="200" xmlns="http://www.w3.org/2000/svg" >
   <title>suryami62's Logo</title>
   <path d="m 67.014283,147.13858 q -3.608109,-1.51387 -6.836416,-3.97391 -3.228308,-2.64928 -4.177811,-4.35239 0,-1.70311 0.569702,-2.27081 0.569701,-0.75694 3.228308,-0.5677 2.848507,0 9.115222,0.75694 2.278806,0 5.697014,-0.37848 3.418208,-0.37846 6.266715,-1.1354 3.038408,-0.75694 3.418209,-1.89234 0.949502,0 0.379801,-0.5677 -0.569702,-0.75694 -1.329303,-1.51388 -0.759602,0 -1.709105,-0.5677 -0.949502,-0.75693 -1.709104,-0.75693 0,-0.94617 -1.899005,-2.08158 -1.709104,-1.32464 -3.608108,-2.08158 -4.177811,-3.4062 -7.216218,-6.05548 -3.038408,-2.83852 -2.278806,-3.78469 0,-0.75693 0,-0.75693 0,-0.18924 0,-0.18924 -1.329303,0 -3.038407,-3.78468 -1.519204,-3.78469 -1.519204,-6.81243 0,-2.27081 1.329303,-5.677023 1.329304,-3.595448 3.608109,-7.38013 2.278806,-3.784684 4.747512,-6.244727 3.418208,-3.21698 8.545521,-6.812428 5.127312,-3.784683 10.064725,-6.623195 5.127312,-3.027745 8.545521,-3.973916 3.418212,-1.324639 6.266712,-1.324639 3.03841,0 5.31722,1.324639 1.899,0.946171 3.4182,2.838512 1.70911,1.703107 2.84851,3.595448 1.3293,1.703107 1.70911,3.027746 0,2.270809 -0.37981,5.109321 -0.3798,2.649278 -1.1394,4.730853 -0.5697,2.081575 -1.899,2.081575 0,0 -0.5697,0.189234 -0.37981,0 -0.37981,0.946171 0,1.892342 -2.8485,4.352386 -3.60811,2.460043 -6.26672,3.027746 -2.6586,0.378468 -3.22831,-2.081576 -0.569697,-0.756936 -0.759597,-1.324638 -0.189901,-0.567703 -0.949503,-0.567703 0,0 -0.569701,-0.567702 -0.569701,-0.567703 -0.569701,-1.892341 0,-0.756938 0.569701,-1.32464 0.569701,-0.756937 0.569701,-0.756937 0.949503,0 2.46871,-2.081575 1.5192,-2.270809 2.6586,-4.730853 1.32931,-2.649278 1.32931,-3.595448 0,-1.135405 -0.37981,-1.324639 -0.1899,-0.189234 -1.7091,-0.189234 -2.65861,1.135405 -6.456615,3.027746 -3.798009,1.892341 -7.216217,3.784682 -3.228308,1.703107 -4.747512,3.21698 -0.759602,1.324639 -0.949502,1.703107 -0.189901,0.189234 -0.949503,0.189234 0,-0.756936 -1.329303,0.756937 -1.139403,1.32464 -3.038408,3.784683 -1.709104,2.460044 -3.418208,4.920087 -1.519204,2.270807 -2.278806,3.406217 -0.379801,0.37846 -0.949502,2.2708 -0.379801,1.70312 -0.379801,3.21698 -0.759602,2.27082 0.189901,3.21698 0.949502,0.75694 4.17781,3.40622 6.646516,4.92009 10.444526,8.13707 3.798009,3.21698 5.697014,5.29855 1.899004,2.08158 2.278805,3.78468 3.418209,5.67702 2.088905,8.70478 -1.329303,3.02774 -6.456616,5.29855 -1.899004,0.94617 -6.266715,1.51387 -4.367711,0.56771 -8.925322,0.56771 -4.557611,0.18923 -7.216218,-0.18924 z" />
   <path d="m 151.57255,146.00318 q -1.899,-1.89235 -3.79801,-5.10933 -1.899,-3.4062 -3.0384,-7.7586 -0.37981,-1.51387 -0.37981,-4.16314 0.1899,-2.64928 0,-3.78469 -0.5697,1.32464 -1.89901,2.83852 -1.1394,1.32463 -2.2788,2.27081 -0.7596,0.75693 -3.41821,3.02774 -2.65861,2.08158 -5.31721,3.40622 -6.26671,3.97391 -10.44452,4.35238 -3.98791,0.37847 -7.59602,-4.16316 -3.03841,-2.46004 -4.36771,-5.48778 -1.13941,-3.02775 0,-8.32631 0.3798,-6.62318 1.899,-12.86791 1.5192,-6.43396 6.26672,-17.031072 3.98791,-7.7586 6.07681,-11.354048 2.08891,-3.784683 2.65861,-4.541619 2.84851,-0.946171 4.74751,0.189234 1.899,0.946171 2.2788,3.595448 1.1394,1.892342 -0.3798,6.43396 -1.3293,4.54162 -4.74751,11.164814 -2.6586,6.433963 -4.93741,12.867923 -2.0889,6.43395 -2.46871,10.97557 -0.3798,4.54162 2.27881,5.4878 1.7091,0.94617 5.88691,-0.56771 4.36771,-1.51387 9.68493,-7.56937 5.50711,-6.05548 10.63442,-18.3557 1.51921,-3.784683 2.2788,-6.623195 0.75961,-3.027746 0.94951,-6.623195 -0.37981,-2.27081 0.1899,-3.973917 0.7596,-1.892341 3.03841,-3.21698 0.7596,-0.94617 2.0889,-1.703107 1.3293,-0.94617 1.70911,0 l 3.0384,-0.189234 q 0.75961,-0.189234 0.9495,0.946171 0.37981,0.94617 1.32931,1.703107 2.0889,1.703107 1.13941,7.38013 -0.94951,5.677025 -5.31722,15.89567 -3.60811,7.7586 -4.93741,11.73251 -1.1394,3.97392 -1.3293,7.7586 0,3.40622 1.3293,6.43396 1.3293,3.02775 4.17781,5.48779 2.0889,1.32464 2.27881,3.02774 0.37979,1.70312 0.18989,3.97392 -0.3798,1.70311 -2.2788,2.83851 -1.7091,0.94618 -3.98791,0.94618 -2.2788,0 -4.17781,-1.32464 z" />
   <path d="m 174.0336,140.51539 q -0.5697,0.18923 -1.89901,-0.18924 -1.32929,-0.37846 -2.6586,-0.94616 -1.3293,-0.56771 -1.70911,-0.94618 -0.75959,-0.75694 -1.5192,-2.2708 -0.5697,-1.51388 0,-4.35239 0.56971,-3.02775 3.79801,-7.7586 0.9495,-1.89234 2.27881,-5.67702 1.3293,-3.78469 2.6586,-7.94784 1.51921,-4.35239 2.65861,-7.75859 1.32931,-3.40622 1.89901,-4.730859 0.37979,-3.21698 -0.37981,-4.541619 -0.5697,-1.513873 -3.22831,-1.703107 -1.899,0 -3.0384,-0.378468 -0.9495,-0.378469 -0.9495,-3.784684 0.3798,-2.649277 1.3293,-3.595448 1.1394,-1.135405 3.03841,-2.460043 1.899,-0.946171 3.79801,-1.324639 2.08891,-0.378468 3.98791,-0.189234 1.89901,0.189234 3.03841,1.324638 1.3293,0.756937 1.7091,3.406215 0.37979,2.460043 0.37979,5.109321 0.18991,2.649278 0.37981,3.973917 1.89901,-1.513873 5.12731,-4.163151 3.41821,-2.838512 5.88691,-5.298556 3.03842,-2.081575 7.21622,-4.16315 4.17781,-2.27081 6.07681,-2.27081 2.08891,0 4.17782,1.135405 2.08891,0.946171 2.8485,2.460044 1.89901,3.21698 1.70911,5.677023 0,2.460044 -2.0889,5.109322 -1.89901,2.460044 -4.74752,3.406214 -2.6586,0.946171 -3.4182,0.946171 -1.1394,0 -2.84851,-1.703107 -1.70911,-1.703107 -1.89901,-2.838512 0,-0.567702 -2.4687,1.135405 -2.27881,1.513873 -5.12732,3.973916 -2.8485,2.27081 -4.7475,4.163156 -3.22831,3.97392 -6.83642,10.78634 -3.60812,6.81243 -8.54553,16.46337 -2.2788,4.73085 -3.2283,8.13707 -0.9495,3.21698 -2.65861,3.78468 z" />
   <path d="m 236.10699,189.9055 q -0.18991,0.37846 -1.7091,-0.75694 -1.32931,-1.1354 -2.65861,-2.83852 -1.32931,-1.51386 -1.1394,-2.64928 -0.75961,-2.64927 0.18989,-6.62319 1.13941,-3.78468 4.74752,-11.35404 1.899,-3.02775 3.4182,-7.1909 1.70911,-4.16315 3.79801,-8.32631 0.94951,-1.7031 4.17781,-7.38013 3.22831,-5.67702 6.83642,-12.86791 3.79801,-7.1909 6.26671,-13.62486 -4.93741,5.10932 -9.11521,10.40788 -4.17782,5.10932 -7.78593,8.32629 -3.41821,3.21698 -6.45661,3.02776 -2.46871,-0.5677 -5.31722,-1.70312 -2.6586,-1.32464 -3.60811,-4.54161 -0.7596,-4.16315 -0.5697,-10.59712 0.3798,-6.43395 2.46871,-19.49111 1.51921,-6.433957 1.7091,-9.840171 0.37981,-3.595449 -0.18989,-5.298556 -0.5697,-1.703107 -2.08891,-3.027746 -2.46871,-2.27081 -2.65861,-3.973917 0,-1.892341 2.65861,-3.21698 3.98791,-0.94617 5.69701,-0.567702 1.7091,0.189234 4.17781,3.027746 1.51921,2.460043 2.65861,4.730853 1.3293,2.081575 1.3293,7.380131 0,2.27081 -0.7596,6.055492 -0.5697,3.78468 -1.1394,7.19089 -0.3798,3.21698 -0.5697,4.54162 -1.89901,7.00167 -2.46871,12.11099 -0.3798,5.10932 0.5697,5.10932 3.79801,-3.02774 7.21622,-6.81242 3.60811,-3.97392 7.40612,-8.89401 3.98791,-5.10932 8.73542,-11.543283 1.7091,-3.21698 3.41821,-6.244726 1.7091,-3.027746 2.8485,-6.244726 1.1394,-2.460044 2.27881,-3.973917 1.1394,-1.513873 1.89901,-1.703107 0.9495,-0.378468 2.2788,0.189234 1.51921,0.567702 2.65861,1.324639 1.3293,0.567702 1.3293,0.946171 0.1899,0.189234 0.9495,0.378468 0.7596,0.189234 1.51921,0.378468 0.9495,0 0.9495,0.567702 0,0.378469 -0.9495,2.460044 -0.75961,2.081575 -1.89901,4.730854 -0.9495,2.460043 -1.7091,4.541619 -0.7596,1.892341 -0.56971,2.270809 0.37981,0.378468 -0.5697,2.838511 -0.9495,2.27081 -2.2788,5.10932 -1.1394,2.83852 -2.08891,5.10932 -1.899,6.24473 -4.36771,12.48945 -2.4687,6.0555 -5.88692,12.11099 -1.1394,2.2708 -3.4182,7.00166 -2.08891,4.73085 -4.17781,9.27247 -1.89901,4.73086 -3.03841,7.1909 -0.7596,1.51387 -2.2788,4.73085 -1.32931,3.40622 -3.03841,7.38014 -1.5192,3.97391 -3.03841,7.38012 -1.5192,3.59545 -2.2788,5.48779 -0.3798,3.59546 -1.70911,5.29856 -0.7596,0 -1.70911,0 -0.94949,0.18924 -0.94949,0.18924 z" />
   <path d="m 291.71148,140.89385 q -1.51921,0.37848 -3.98791,0.37848 -2.46871,-0.18924 -4.36771,-0.56771 -1.7091,-0.5677 -1.7091,-1.13541 0,-0.94616 -0.94951,-0.94616 0,0 -0.9495,-0.75694 -0.7596,-0.75694 -2.4687,-1.51388 -1.70911,-2.64927 -1.70911,-5.67702 0,-3.21698 1.70911,-10.02941 0.5697,-4.73085 3.6081,-10.97557 3.22831,-6.43396 7.78593,-13.057158 4.5576,-6.623195 9.49502,-11.92175 5.1273,-5.298556 9.30512,-7.758599 2.65861,-2.649278 6.45662,-2.838512 3.79801,-0.189234 7.21621,1.703107 1.899,0.946171 3.79801,3.027746 1.899,2.081575 3.60811,4.541619 1.7091,2.460043 2.84851,4.920087 0.5697,2.081575 0.5697,3.784683 0.1899,1.513873 0,3.784683 0,2.270809 -0.5697,6.812434 -0.9495,3.4062 -1.70911,8.3263 -0.5697,4.92008 -0.5697,8.51553 -0.3798,3.59544 0.7596,5.10932 1.3293,1.51388 3.79801,0.18924 2.27881,-1.13541 4.36772,-0.94618 2.08889,0 3.2283,1.13541 1.3293,1.13541 1.3293,3.40621 0,2.27081 -2.2788,4.73085 -2.08891,2.27082 -5.31722,3.97392 -3.0384,1.51388 -5.88691,1.51388 -2.0889,0 -3.98791,-2.46004 -1.899,-2.64928 -3.41821,-6.24473 -1.32931,-3.78468 -2.46871,-7.1909 l -1.1394,-4.35238 -8.16572,7.7586 q -2.4687,2.64927 -4.93741,4.92008 -2.27881,2.08157 -2.84851,3.02775 -0.9495,1.7031 -3.6081,3.40622 -2.46871,1.7031 -6.83642,3.4062 z m 0.5697,-11.16481 q 3.22831,-1.89234 7.40612,-5.48778 4.17781,-3.78469 8.16572,-8.13708 3.98791,-4.54161 6.64652,-8.32629 3.22831,-4.35239 4.93741,-8.137072 1.7091,-3.784682 2.4687,-7.190897 -0.7596,-2.081576 -2.4687,-4.352385 -1.7091,-2.460044 -3.03841,-2.649278 -4.17781,0 -8.92532,5.298556 -4.55761,5.109322 -8.92532,11.164816 -0.75961,0.94616 -2.08891,3.02774 -1.32931,2.08158 -2.65861,3.97392 -1.1394,1.7031 -1.5192,2.27081 -0.5697,0.75693 -2.27881,4.35238 -1.5192,3.40622 -3.03841,7.00166 -1.51919,3.40622 -1.51919,4.54162 0,1.13541 0.18989,2.46005 0.37981,1.32464 1.899,1.7031 1.51921,0.37847 4.74752,-1.51387 z" />
   <path d="m 363.84542,46.405416 0.46362,11.087937 q 11.03426,-12.935927 29.76468,-12.935927 21.04853,0 28.65197,16.077508 5.00714,-7.207159 12.98148,-11.642333 8.06705,-4.435175 19.00859,-4.435175 33.01004,0 33.56639,34.834602 V 146.38164 H 471.12806 V 80.408422 q 0,-10.718339 -4.91442,-15.985109 -4.91442,-5.35917 -16.50503,-5.35917 -9.55065,0 -15.85594,5.728768 -6.30529,5.636368 -7.32526,15.245913 V 146.38164 H 409.28059 V 80.870419 q 0,-21.806276 -21.41944,-21.806276 -16.87593,0 -23.08849,14.321919 V 146.38164 H 347.61857 V 46.405416 Z" />
   <path d="M 510.79007,146.38164 H 493.63596 V 46.405416 h 17.15411 z M 492.24509,19.886767 q 0,-4.157976 2.50358,-7.02236 2.5963,-2.864383 7.60343,-2.864383 5.00714,0 7.60344,2.864383 2.5963,2.864384 2.5963,7.02236 0,4.157977 -2.5963,6.929961 -2.5963,2.771984 -7.60344,2.771984 -5.00713,0 -7.60343,-2.771984 -2.50358,-2.771984 -2.50358,-6.929961 z" />
   <path d="m 580.08799,142.97543 -3.60811,3.40621 h -49.37413 l -3.6081,-3.40621 10.63442,-10.59711 h 35.3215 z m 7.02632,-7.00166 -3.41821,3.40622 -10.63443,-10.59712 V 93.585326 l 10.63443,-10.597111 3.41821,3.595448 z M 587.3042,15.999337 573.25157,30.191895 h -39.1195 l -10.63442,-10.59711 3.6081,-3.595448 z m -15.95163,58.094874 7.02632,7.190896 -7.02632,7.001663 h -39.1195 l -7.02632,-7.001663 7.02632,-7.190896 z m -40.82861,54.688659 -10.63442,10.59712 -3.41821,-3.40622 V 86.583663 l 3.41821,-3.595448 10.63442,10.597111 z m 0,-59.79798 -10.63442,10.407876 -3.41821,-3.406214 V 26.596447 l 3.41821,-3.595448 10.63442,10.597111 z" />
   <path d="M 663.99994,75.986552 660.39183,79.392766 649.7574,68.98489 V 33.59811 l 10.63443,-10.597111 3.60811,3.595448 z M 656.97362,19.594785 646.3392,30.191895 H 607.40959 L 593.16706,15.999337 h 60.19845 z m -49.56403,109.188085 -10.63442,10.59712 -3.60811,-3.40622 V 86.583663 l 3.60811,-3.595448 10.63442,10.597111 z m 56.59035,17.59877 h -60.19845 l -3.60811,-3.40621 10.63443,-10.59711 h 39.11949 z m -8.73542,-65.096533 -7.21622,7.001663 h -38.92959 l -7.21623,-7.001663 7.21623,-7.190896 h 38.92959 z" />
</svg>
