<?xml version="1.0" encoding="UTF-8" standalone="no"?>
<!DOCTYPE svg PUBLIC "-//W3C//DTD SVG 1.1//EN" "http://www.w3.org/Graphics/SVG/1.1/DTD/svg11.dtd">
<svg width="100%" height="100%" viewBox="0 0 1000 1000" version="1.1" xmlns="http://www.w3.org/2000/svg" xmlns:xlink="http://www.w3.org/1999/xlink" xml:space="preserve" xmlns:serif="http://www.serif.com/" style="fill-rule:evenodd;clip-rule:evenodd;stroke-linejoin:round;stroke-miterlimit:2;">
    <g transform="matrix(1.08696,0,0,1.08696,-43.4783,-43.4778)">
        <path d="M98.725,957.136C85.9,945.681 73.75,930.646 62.275,912.031C50.8,891.984 43.375,875.517 40,862.63C40,849.743 41.013,841.152 43.038,836.856C45.063,831.128 50.8,828.981 60.25,830.412C70.375,830.412 86.575,833.276 108.85,839.004C116.95,839.004 127.075,837.572 139.225,834.708C151.375,831.844 162.513,827.549 172.638,821.821C183.438,816.093 189.513,808.934 190.863,800.342C194.238,800.342 194.913,798.194 192.888,793.899C190.863,788.171 188.501,782.444 185.801,776.716C183.101,776.716 180.063,774.568 176.688,770.272C173.313,764.545 170.276,761.681 167.576,761.681C167.576,754.521 164.201,746.646 157.45,738.054C151.375,728.031 144.963,720.156 138.213,714.428C123.363,688.654 110.538,665.743 99.738,645.696C88.938,624.218 84.888,609.899 87.588,602.739L87.588,592C82.863,592 77.463,577.681 71.388,549.043C65.988,520.405 63.288,494.63 63.288,471.72C63.288,454.537 65.65,433.058 70.375,407.284C75.1,380.078 81.513,352.155 89.613,323.517C97.713,294.879 106.15,271.253 114.925,252.638C127.075,228.295 142.263,202.521 160.488,175.315C178.713,146.677 196.601,121.618 214.151,100.14C232.376,77.229 247.563,62.194 259.713,55.035C271.863,45.011 283.001,40 293.126,40C303.926,40 313.376,45.011 321.476,55.035C328.226,62.194 334.301,72.933 339.701,87.253C345.776,100.14 350.839,113.743 354.889,128.062C359.614,140.949 362.651,152.404 364.001,162.428C364.001,179.611 363.326,198.941 361.976,220.42C360.626,240.467 358.601,258.365 355.901,274.116C353.876,289.867 350.501,297.743 345.776,297.743C345.776,297.743 344.764,298.459 342.739,299.891C341.389,299.891 340.714,303.471 340.714,310.63C340.714,324.949 335.651,341.416 325.526,360.031C312.701,378.646 301.564,390.101 292.114,394.397C282.663,397.26 276.926,389.385 274.901,370.77C272.876,365.043 271.526,360.031 270.851,355.735C270.176,351.439 268.488,349.292 265.788,349.292C265.788,349.292 264.776,347.144 262.751,342.848C260.726,338.552 259.713,331.393 259.713,321.369C259.713,315.642 260.726,310.63 262.751,306.334C264.776,300.607 265.788,297.743 265.788,297.743C269.163,297.743 273.551,289.867 278.951,274.116C284.351,256.934 289.076,239.035 293.126,220.42C297.851,200.373 300.214,186.77 300.214,179.611C300.214,171.019 299.539,166.007 298.189,164.576C297.514,163.144 294.476,162.428 289.076,162.428C279.626,171.019 268.151,182.474 254.651,196.793C241.151,211.113 228.326,225.432 216.176,239.751C204.701,252.638 196.263,264.809 190.863,276.264C188.163,286.288 186.476,292.731 185.801,295.595C185.126,297.027 183.438,297.743 180.738,297.743C180.738,292.015 178.376,294.879 173.651,306.334C169.601,316.358 164.201,330.677 157.45,349.292C151.375,367.906 145.3,386.521 139.225,405.136C133.825,422.319 129.775,435.206 127.075,443.797C125.725,446.661 124.038,455.253 122.013,469.572C120.663,482.459 119.988,494.63 119.988,506.085C117.288,523.268 117.625,535.44 121,542.599C124.375,548.327 131.8,561.214 143.275,581.261C166.901,618.49 185.463,649.276 198.963,673.619C212.463,697.961 222.588,718.008 229.338,733.759C236.088,749.51 240.138,763.829 241.488,776.716C253.638,819.673 257.351,852.607 252.626,875.518C247.901,898.428 236.426,918.475 218.201,935.658C211.451,942.817 200.313,948.545 184.788,952.841C169.263,957.136 153.4,959.284 137.2,959.284C121,960.716 108.175,960 98.725,957.136Z" style="fill-rule:nonzero;"/>
        <path d="M380.707,881.961C378.682,883.393 375.307,882.677 370.582,879.813C365.857,876.949 361.132,873.37 356.407,869.074C351.682,864.778 348.645,861.198 347.295,858.335C344.595,852.607 341.894,844.016 339.194,832.56C337.169,821.105 337.169,804.638 339.194,783.159C341.219,760.249 347.97,730.895 359.445,695.097C362.82,680.778 366.87,659.299 371.595,630.661C376.32,602.023 381.045,571.953 385.77,540.451C391.17,507.517 395.895,478.163 399.945,452.389C404.67,426.615 408.045,408.716 410.07,398.692C411.42,374.35 410.745,357.167 408.045,347.144C406.02,335.688 400.282,329.245 390.832,327.813C384.082,327.813 378.682,326.381 374.632,323.517C371.257,320.653 369.57,306.334 369.57,280.56C370.92,260.513 373.282,246.91 376.657,239.751C380.707,231.159 386.107,221.852 392.857,211.828C399.607,204.669 406.357,199.657 413.107,196.793C420.532,193.93 427.62,193.214 434.37,194.646C441.12,196.077 446.52,201.089 450.57,209.681C455.295,215.408 458.332,228.295 459.682,248.342C461.032,266.957 461.707,286.288 461.707,306.334C462.382,326.381 463.057,341.416 463.732,351.439C470.482,339.984 479.595,324.233 491.07,304.186C503.22,282.708 513.683,262.661 522.458,244.046C533.258,228.295 546.083,212.544 560.933,196.793C575.783,179.611 586.583,171.019 593.333,171.019C600.758,171.019 608.183,175.315 615.608,183.906C623.033,191.066 628.096,200.373 630.796,211.828C637.546,236.171 640.583,257.65 639.908,276.264C639.908,294.879 636.196,314.21 628.771,334.257C622.021,352.871 613.583,365.759 603.458,372.918C594.008,380.078 587.933,383.657 585.233,383.657C581.183,383.657 576.12,377.214 570.045,364.327C563.97,351.439 560.595,340.7 559.92,332.109C559.92,327.813 555.533,332.109 546.758,344.996C538.658,356.451 529.545,371.486 519.42,390.101C509.295,407.284 500.858,423.035 494.108,437.354C482.633,467.424 470.483,508.233 457.657,559.782C444.832,611.331 429.645,673.619 412.095,746.646C403.995,782.444 398.257,813.23 394.882,839.004C391.507,863.346 386.782,877.665 380.707,881.961Z" style="fill-rule:nonzero;"/>
        <path d="M673.567,454.478L705.599,452.302C680.715,433.766 668.272,408.701 668.272,377.109C668.272,343.421 682.832,320.291 711.952,307.718C682.832,289.343 668.272,263.151 668.272,229.14C668.272,200.772 677.361,179.656 695.539,165.794C713.541,151.932 740.719,145.001 777.075,145.001L960,145.001L960,215.117L777.34,215.117C761.103,215.117 749.279,218.019 741.866,223.821C734.277,229.624 730.483,239.859 730.483,254.527C730.483,275.481 741.425,289.988 763.309,298.047L960,297.805L960,367.68L777.604,367.68C761.015,367.68 749.014,370.661 741.602,376.625C734.189,382.589 730.483,392.744 730.483,407.089C730.483,426.915 739.484,441.261 757.485,450.126L960,450.126L960,520L673.567,520L673.567,454.478Z" style="fill-rule:nonzero;"/>
        <path d="M960,44.111L960,114.226L673.567,114.226L673.567,44.111L960,44.111ZM599.444,118.337C587.972,118.337 578.53,114.871 571.118,107.94C563.706,100.848 560,91.257 560,79.169C560,67.241 563.706,57.731 571.118,50.639C578.53,43.546 587.972,40 599.444,40C611.092,40 620.622,43.627 628.034,50.88C635.447,57.973 639.153,67.402 639.153,79.169C639.153,90.935 635.447,100.445 628.034,107.698C620.622,114.791 611.092,118.337 599.444,118.337Z" style="fill-rule:nonzero;"/>
        <path d="M703.894,949.55L692.864,960L541.921,960L530.89,949.55L563.401,917.039L671.383,917.039L703.894,949.55ZM725.375,928.07L714.925,938.52L682.414,906.009L682.414,798.026L714.925,765.516L725.375,776.546L725.375,928.07ZM725.955,560.001L682.994,603.542L563.401,603.542L530.89,571.031L541.921,560.001L725.955,560.001ZM677.189,738.23L698.669,760.291L677.189,781.771L557.595,781.771L536.115,760.291L557.595,738.23L677.189,738.23ZM552.37,906.009L519.86,938.52L509.41,928.07L509.41,776.546L519.86,765.516L552.37,798.026L552.37,906.009ZM552.37,722.555L519.86,754.485L509.41,744.035L509.41,592.511L519.86,581.481L552.37,613.992L552.37,722.555Z" style="fill-rule:nonzero;"/>
        <path d="M960,744.035L948.97,754.485L916.459,722.555L916.459,613.992L948.97,581.481L960,592.511L960,744.035ZM938.52,571.031L906.009,603.542L786.996,603.542L743.455,560.001L927.489,560.001L938.52,571.031ZM786.996,906.009L754.485,938.52L743.455,928.07L743.455,776.546L754.485,765.516L786.996,798.026L786.996,906.009ZM960,960L775.966,960L764.935,949.55L797.446,917.039L917.039,917.039L960,960ZM933.295,760.291L911.234,781.771L792.221,781.771L770.16,760.291L792.221,738.23L911.234,738.23L933.295,760.291Z" style="fill-rule:nonzero;"/>
    </g>
</svg>
