<?xml version="1.0" encoding="UTF-8" standalone="no"?>
<!DOCTYPE svg PUBLIC "-//W3C//DTD SVG 1.1//EN" "http://www.w3.org/Graphics/SVG/1.1/DTD/svg11.dtd">
<svg width="100%" height="100%" viewBox="0 0 676 200" version="1.1" xmlns="http://www.w3.org/2000/svg" xmlns:xlink="http://www.w3.org/1999/xlink" xml:space="preserve" xmlns:serif="http://www.serif.com/" style="fill-rule:evenodd;clip-rule:evenodd;stroke-linejoin:round;stroke-miterlimit:2;">
    <g transform="matrix(1.11111,0,0,1.11111,-62.1998,-11.1111)">
        <path d="M67.014,147.139C64.609,146.129 62.33,144.805 60.178,143.165C58.026,141.398 56.633,139.948 56,138.812C56,137.677 56.19,136.92 56.57,136.541C56.95,136.037 58.026,135.848 59.798,135.974C61.697,135.974 64.735,136.226 68.913,136.731C70.432,136.731 72.331,136.605 74.61,136.352C76.889,136.1 78.978,135.721 80.877,135.217C82.903,134.712 84.042,134.081 84.295,133.324C84.928,133.324 85.055,133.135 84.675,132.757C84.295,132.252 83.852,131.748 83.346,131.243C82.839,131.243 82.27,131.054 81.637,130.675C81.004,130.171 80.434,129.918 79.928,129.918C79.928,129.287 79.295,128.594 78.029,127.837C76.889,126.954 75.686,126.26 74.42,125.755C71.635,123.484 69.23,121.466 67.204,119.7C65.179,117.807 64.419,116.546 64.925,115.915L64.925,114.969C64.039,114.969 63.026,113.707 61.887,111.184C60.874,108.661 60.368,106.39 60.368,104.372C60.368,102.858 60.811,100.965 61.697,98.695C62.583,96.298 63.786,93.838 65.305,91.315C66.824,88.791 68.407,86.71 70.053,85.07C72.331,82.925 75.18,80.654 78.598,78.257C82.016,75.734 85.371,73.527 88.663,71.634C92.081,69.616 94.93,68.291 97.208,67.66C99.487,66.777 101.576,66.336 103.475,66.336C105.501,66.336 107.273,66.777 108.792,67.66C110.058,68.291 111.198,69.237 112.211,70.499C113.35,71.634 114.3,72.833 115.059,74.094C115.945,75.23 116.515,76.239 116.768,77.122C116.768,78.636 116.642,80.339 116.388,82.231C116.135,83.997 115.755,85.574 115.249,86.962C114.869,88.35 114.236,89.044 113.35,89.044C113.35,89.044 113.16,89.107 112.78,89.233C112.527,89.233 112.4,89.548 112.4,90.179C112.4,91.441 111.451,92.891 109.552,94.531C107.147,96.172 105.058,97.181 103.285,97.559C101.513,97.812 100.437,97.118 100.057,95.478C99.677,94.973 99.424,94.531 99.297,94.153C99.171,93.775 98.854,93.585 98.348,93.585C98.348,93.585 98.158,93.396 97.778,93.018C97.398,92.639 97.208,92.008 97.208,91.125C97.208,90.621 97.398,90.179 97.778,89.801C98.158,89.296 98.348,89.044 98.348,89.044C98.981,89.044 99.804,88.35 100.817,86.962C101.829,85.448 102.716,83.871 103.475,82.231C104.361,80.465 104.804,79.267 104.804,78.636C104.804,77.879 104.678,77.437 104.425,77.311C104.298,77.185 103.728,77.122 102.716,77.122C100.943,77.879 98.791,78.888 96.259,80.15C93.727,81.411 91.322,82.673 89.043,83.934C86.891,85.07 85.308,86.142 84.295,87.151C83.789,88.034 83.472,88.602 83.346,88.854C83.219,88.981 82.903,89.044 82.396,89.044C82.396,88.539 81.953,88.791 81.067,89.801C80.307,90.684 79.295,91.945 78.029,93.585C76.889,95.225 75.75,96.865 74.61,98.505C73.597,100.019 72.838,101.155 72.331,101.912C72.078,102.164 71.762,102.921 71.382,104.182C71.129,105.318 71.002,106.39 71.002,107.399C70.496,108.913 70.559,109.986 71.192,110.616C71.825,111.121 73.218,112.256 75.37,114.023C79.801,117.303 83.282,120.015 85.814,122.16C88.346,124.304 90.245,126.071 91.511,127.458C92.777,128.846 93.537,130.108 93.79,131.243C96.069,135.028 96.765,137.929 95.879,139.948C94.993,141.966 92.841,143.732 89.423,145.246C88.157,145.877 86.068,146.382 83.156,146.76C80.244,147.139 77.269,147.328 74.231,147.328C71.192,147.454 68.787,147.391 67.014,147.139Z" style="fill-rule:nonzero;"/>
        <path d="M151.573,146.003C150.307,144.742 149.041,143.039 147.775,140.894C146.509,138.623 145.496,136.037 144.736,133.135C144.483,132.126 144.356,130.738 144.356,128.972C144.483,127.206 144.483,125.944 144.356,125.187C143.977,126.071 143.344,127.017 142.457,128.026C141.698,128.909 140.938,129.666 140.179,130.297C139.672,130.801 138.533,131.811 136.76,133.324C134.988,134.712 133.216,135.848 131.443,136.731C127.265,139.38 123.784,140.831 120.999,141.083C118.34,141.335 115.808,139.948 113.403,136.92C111.377,135.28 109.921,133.451 109.035,131.432C108.275,129.414 108.275,126.638 109.035,123.106C109.288,118.69 109.921,114.401 110.934,110.238C111.947,105.949 114.036,100.272 117.201,93.207C119.859,88.034 121.885,84.25 123.277,81.853C124.67,79.33 125.556,77.816 125.936,77.311C127.835,76.68 129.418,76.743 130.684,77.5C131.95,78.131 132.709,79.33 132.962,81.096C133.722,82.357 133.595,84.502 132.583,87.53C131.696,90.558 130.114,94.279 127.835,98.695C126.063,102.984 124.417,107.273 122.898,111.563C121.505,115.852 120.682,119.51 120.429,122.538C120.176,125.566 120.935,127.395 122.708,128.026C123.847,128.657 125.809,128.467 128.595,127.458C131.506,126.449 134.735,123.926 138.28,119.889C141.951,115.852 145.496,109.733 148.914,101.533C149.927,99.01 150.686,96.802 151.193,94.91C151.699,92.891 152.016,90.684 152.142,88.287C151.889,86.773 151.952,85.448 152.332,84.313C152.839,83.051 153.851,81.979 155.371,81.096C155.877,80.465 156.573,79.897 157.459,79.393C158.346,78.762 158.915,78.762 159.169,79.393L162.207,79.204C162.713,79.077 163.03,79.393 163.156,80.15C163.41,80.78 163.853,81.348 164.486,81.853C165.878,82.988 166.258,85.448 165.625,89.233C164.992,93.018 163.22,98.316 160.308,105.129C157.903,110.301 156.257,114.212 155.371,116.861C154.611,119.51 154.168,122.097 154.041,124.62C154.041,126.891 154.484,129.035 155.371,131.054C156.257,133.072 157.649,134.901 159.548,136.541C160.941,137.425 161.701,138.434 161.827,139.569C162.08,140.705 162.144,142.029 162.017,143.543C161.764,144.679 161.004,145.625 159.738,146.382C158.599,147.012 157.27,147.328 155.75,147.328C154.231,147.328 152.839,146.886 151.573,146.003Z" style="fill-rule:nonzero;"/>
        <path d="M174.034,140.515C173.654,140.642 173.021,140.578 172.135,140.326C171.248,140.074 170.362,139.758 169.476,139.38C168.59,139.002 168.02,138.686 167.767,138.434C167.26,137.929 166.754,137.172 166.248,136.163C165.868,135.154 165.868,133.703 166.248,131.811C166.627,129.792 167.893,127.206 170.046,124.052C170.679,122.79 171.438,120.898 172.324,118.375C173.211,115.852 174.097,113.203 174.983,110.427C175.996,107.526 176.882,104.939 177.642,102.669C178.528,100.398 179.161,98.821 179.541,97.938C179.794,95.793 179.667,94.279 179.161,93.396C178.781,92.387 177.705,91.819 175.933,91.693C174.667,91.693 173.654,91.567 172.894,91.315C172.261,91.062 171.945,89.801 171.945,87.53C172.198,85.764 172.641,84.565 173.274,83.934C174.034,83.177 175.046,82.357 176.312,81.474C177.578,80.844 178.844,80.402 180.11,80.15C181.503,79.897 182.832,79.834 184.098,79.96C185.364,80.087 186.377,80.528 187.137,81.285C188.023,81.79 188.593,82.925 188.846,84.691C189.099,86.331 189.226,88.034 189.226,89.801C189.352,91.567 189.479,92.891 189.605,93.775C190.871,92.765 192.581,91.378 194.733,89.611C197.012,87.719 198.974,85.953 200.62,84.313C202.645,82.925 205.051,81.537 207.836,80.15C210.621,78.636 212.647,77.879 213.913,77.879C215.305,77.879 216.698,78.257 218.091,79.014C219.483,79.645 220.433,80.465 220.939,81.474C222.205,83.619 222.775,85.511 222.648,87.151C222.648,88.791 221.952,90.495 220.559,92.261C219.293,93.901 217.711,95.036 215.812,95.667C214.039,96.298 212.9,96.613 212.393,96.613C211.634,96.613 210.684,96.045 209.545,94.91C208.406,93.775 207.773,92.828 207.646,92.071C207.646,91.693 206.823,92.071 205.177,93.207C203.658,94.216 201.949,95.541 200.05,97.181C198.151,98.695 196.568,100.082 195.302,101.344C193.15,103.993 190.871,107.589 188.466,112.13C186.061,116.672 183.212,122.16 179.921,128.594C178.401,131.748 177.325,134.46 176.692,136.731C176.059,138.875 175.173,140.137 174.034,140.515Z" style="fill-rule:nonzero;"/>
        <path d="M236.107,189.905C235.98,190.158 235.411,189.905 234.398,189.149C233.512,188.392 232.625,187.445 231.739,186.31C230.853,185.301 230.473,184.418 230.6,183.661C230.093,181.895 230.157,179.687 230.79,177.038C231.549,174.514 233.132,170.73 235.537,165.684C236.803,163.665 237.943,161.268 238.955,158.493C240.095,155.717 241.361,152.942 242.754,150.166C243.387,149.031 244.779,146.571 246.931,142.786C249.084,139.002 251.362,134.712 253.768,129.918C256.3,125.124 258.389,120.583 260.034,116.293C256.743,119.7 253.704,123.169 250.919,126.701C248.134,130.108 245.539,132.883 243.133,135.028C240.854,137.172 238.702,138.181 236.677,138.055C235.031,137.677 233.258,137.109 231.359,136.352C229.587,135.469 228.384,133.955 227.751,131.811C227.245,129.035 227.055,125.503 227.182,121.214C227.435,116.924 228.258,110.427 229.65,101.722C230.663,97.433 231.233,94.153 231.359,91.882C231.613,89.485 231.549,87.719 231.17,86.584C230.79,85.448 230.093,84.439 229.081,83.556C227.435,82.042 226.549,80.717 226.422,79.582C226.422,78.32 227.308,77.248 229.081,76.365C231.739,75.734 233.638,75.545 234.778,75.797C235.917,75.923 237.31,76.933 238.955,78.825C239.968,80.465 240.855,82.042 241.614,83.556C242.5,84.944 242.943,87.404 242.943,90.936C242.943,92.45 242.69,94.468 242.184,96.992C241.804,99.515 241.424,101.912 241.044,104.182C240.791,106.327 240.601,107.841 240.475,108.724C239.209,113.392 238.386,117.429 238.006,120.835C237.753,124.241 237.943,125.944 238.576,125.944C241.108,123.926 243.513,121.655 245.792,119.132C248.197,116.483 250.666,113.518 253.198,110.238C255.857,106.832 258.768,102.984 261.933,98.695C263.073,96.55 264.212,94.468 265.352,92.45C266.491,90.431 267.441,88.35 268.2,86.205C268.96,84.565 269.719,83.241 270.479,82.231C271.239,81.222 271.872,80.654 272.378,80.528C273.011,80.276 273.771,80.339 274.657,80.717C275.67,81.096 276.556,81.537 277.315,82.042C278.202,82.421 278.645,82.736 278.645,82.988C278.771,83.114 279.088,83.241 279.594,83.367C280.101,83.493 280.607,83.619 281.113,83.745C281.746,83.745 282.063,83.934 282.063,84.313C282.063,84.565 281.746,85.385 281.113,86.773C280.607,88.161 279.974,89.738 279.214,91.504C278.581,93.144 278.012,94.658 277.505,96.045C276.999,97.307 276.809,98.064 276.936,98.316C277.189,98.568 276.999,99.515 276.366,101.155C275.733,102.669 274.973,104.372 274.087,106.264C273.327,108.156 272.631,109.859 271.998,111.373C270.732,115.536 269.276,119.7 267.63,123.863C265.985,127.9 264.022,131.937 261.744,135.974C260.984,137.488 259.845,139.822 258.325,142.975C256.933,146.129 255.54,149.22 254.148,152.248C252.882,155.402 251.869,157.799 251.109,159.439C250.603,160.448 249.843,162.025 248.83,164.17C247.944,166.44 246.931,168.901 245.792,171.55C244.779,174.199 243.766,176.659 242.754,178.93C241.741,181.327 240.981,183.156 240.475,184.418C240.222,186.815 239.652,188.581 238.766,189.716L237.056,189.716C236.423,189.842 236.107,189.905 236.107,189.905Z" style="fill-rule:nonzero;"/>
        <path d="M291.711,140.894C290.699,141.146 289.369,141.272 287.724,141.272C286.078,141.146 284.622,140.957 283.356,140.705C282.216,140.326 281.647,139.948 281.647,139.569C281.647,138.938 281.33,138.623 280.697,138.623C280.697,138.623 280.381,138.371 279.748,137.866C279.241,137.361 278.418,136.857 277.279,136.352C276.14,134.586 275.57,132.694 275.57,130.675C275.57,128.531 276.14,125.187 277.279,120.646C277.659,117.492 278.862,113.833 280.887,109.67C283.039,105.381 285.635,101.029 288.673,96.613C291.711,92.198 294.876,88.224 298.168,84.691C301.586,81.159 304.688,78.573 307.473,76.933C309.246,75.167 311.398,74.22 313.93,74.094C316.462,73.968 318.867,74.536 321.146,75.797C322.412,76.428 323.678,77.437 324.944,78.825C326.21,80.213 327.413,81.727 328.552,83.367C329.692,85.007 330.641,86.647 331.401,88.287C331.78,89.674 331.97,90.936 331.97,92.071C332.097,93.081 332.097,94.342 331.97,95.856C331.97,97.37 331.78,99.641 331.401,102.669C330.768,104.939 330.198,107.715 329.692,110.995C329.312,114.275 329.122,117.113 329.122,119.51C328.869,121.907 329.122,123.61 329.881,124.62C330.768,125.629 332.034,125.692 333.679,124.809C335.199,124.052 336.655,123.737 338.047,123.863C339.44,123.863 340.516,124.241 341.275,124.998C342.162,125.755 342.605,126.891 342.605,128.404C342.605,129.918 341.845,131.495 340.326,133.135C338.933,134.649 337.161,135.974 335.009,137.109C332.983,138.118 331.021,138.623 329.122,138.623C327.729,138.623 326.4,137.803 325.134,136.163C323.868,134.397 322.729,132.315 321.716,129.918C320.83,127.395 320.007,124.998 319.247,122.727L318.108,118.375L309.942,126.134C308.296,127.9 306.65,129.54 305.005,131.054C303.485,132.441 302.536,133.451 302.156,134.081C301.523,135.217 300.32,136.352 298.548,137.488C296.902,138.623 294.623,139.758 291.711,140.894ZM292.281,129.729C294.433,128.467 296.902,126.638 299.687,124.241C302.473,121.718 305.194,119.006 307.853,116.104C310.512,113.076 312.727,110.301 314.5,107.778C316.652,104.876 318.298,102.164 319.437,99.641C320.576,97.118 321.399,94.721 321.906,92.45C321.399,91.062 320.576,89.611 319.437,88.098C318.298,86.458 317.285,85.574 316.399,85.448C313.613,85.448 310.638,87.214 307.473,90.747C304.435,94.153 301.46,97.875 298.548,101.912C298.041,102.542 297.345,103.552 296.459,104.939C295.573,106.327 294.687,107.652 293.8,108.913C293.041,110.049 292.534,110.806 292.281,111.184C291.901,111.689 291.142,113.14 290.002,115.536C288.99,117.807 287.977,120.141 286.964,122.538C285.951,124.809 285.445,126.323 285.445,127.08C285.445,127.837 285.508,128.657 285.635,129.54C285.888,130.423 286.521,130.991 287.534,131.243C288.546,131.495 290.129,130.991 292.281,129.729Z" style="fill-rule:nonzero;"/>
        <path d="M363.845,46.405L364.309,57.493C371.665,48.869 381.587,44.557 394.074,44.557C408.106,44.557 417.657,49.917 422.726,60.635C426.064,55.83 430.391,51.949 435.707,48.993C441.085,46.036 447.421,44.557 454.716,44.557C476.722,44.557 487.911,56.169 488.282,79.392L488.282,146.382L471.128,146.382L471.128,80.408C471.128,73.263 469.49,67.934 466.214,64.423C462.937,60.851 457.436,59.064 449.709,59.064C443.342,59.064 438.056,60.974 433.853,64.793C429.649,68.55 427.207,73.632 426.527,80.039L426.527,146.382L409.281,146.382L409.281,80.87C409.281,66.333 402.141,59.064 387.861,59.064C376.611,59.064 368.914,63.838 364.773,73.386L364.773,146.382L347.619,146.382L347.619,46.405L363.845,46.405Z" style="fill-rule:nonzero;"/>
        <path d="M510.79,146.382L493.636,146.382L493.636,46.405L510.79,46.405L510.79,146.382ZM492.245,19.887C492.245,17.115 493.08,14.774 494.749,12.864C496.48,10.955 499.014,10 502.352,10C505.69,10 508.225,10.955 509.956,12.864C511.686,14.774 512.552,17.115 512.552,19.887C512.552,22.659 511.686,24.969 509.956,26.817C508.225,28.665 505.69,29.589 502.352,29.589C499.014,29.589 496.48,28.665 494.749,26.817C493.08,24.969 492.245,22.659 492.245,19.887Z" style="fill-rule:nonzero;"/>
        <path d="M580.088,142.975L576.48,146.382L527.106,146.382L523.498,142.975L534.132,132.378L569.454,132.378L580.088,142.975ZM587.114,135.974L583.696,139.38L573.062,128.783L573.062,93.585L583.696,82.988L587.114,86.584L587.114,135.974ZM587.304,15.999L573.252,30.192L534.132,30.192L523.498,19.595L527.106,15.999L587.304,15.999ZM571.353,74.094L578.379,81.285L571.353,88.287L532.233,88.287L525.207,81.285L532.233,74.094L571.353,74.094ZM530.524,128.783L519.89,139.38L516.471,135.974L516.471,86.584L519.89,82.988L530.524,93.585L530.524,128.783ZM530.524,68.985L519.89,79.393L516.471,75.987L516.471,26.596L519.89,23.001L530.524,33.598L530.524,68.985Z" style="fill-rule:nonzero;"/>
        <path d="M664,75.987L660.392,79.393L649.757,68.985L649.757,33.598L660.392,23.001L664,26.596L664,75.987ZM656.974,19.595L646.339,30.192L607.41,30.192L593.167,15.999L653.366,15.999L656.974,19.595ZM607.41,128.783L596.775,139.38L593.167,135.974L593.167,86.584L596.775,82.988L607.41,93.585L607.41,128.783ZM664,146.382L603.801,146.382L600.193,142.975L610.828,132.378L649.947,132.378L664,146.382ZM655.265,81.285L648.048,88.287L609.119,88.287L601.902,81.285L609.119,74.094L648.048,74.094L655.265,81.285Z" style="fill-rule:nonzero;"/>
    </g>
</svg>
